<svg width="260" height="26" viewBox="0 0 260 26" fill="none" xmlns="http://www.w3.org/2000/svg">
<g clip-path="url(#clip0_45_462)">
<g clip-path="url(#clip1_45_462)">
<path d="M99.9293 24.8306C97.759 24.8306 96.0074 23.0527 96.0074 20.8783V4.87781C96.0074 2.70348 97.7717 0.925644 99.9293 0.925644H127.142V5.0185H100.488V20.712H122.661V14.9181H106.618V10.7997H127.142V24.8176H99.9293V24.8306Z" fill="black"/>
<path d="M137.778 24.8306C135.62 24.8306 133.856 23.0527 133.856 20.8783V0.925644H164.127V5.0185H138.336V10.8125H163.403V14.9309H138.336V20.7248H164.127V24.8434H137.791L137.778 24.8306Z" fill="black"/>
<path d="M210.765 24.8323C208.595 24.8323 206.843 23.0546 206.843 20.8802V0.901886H211.324V20.7139H233.623V24.8323H210.765Z" fill="black"/>
<path d="M174.203 24.8306C172.046 24.8306 170.281 23.0527 170.281 20.8783V0.925644H200.552V5.0185H174.762V10.8125H199.841V14.9309H174.762V20.7248H200.552V24.8434H174.216L174.203 24.8306Z" fill="black"/>
<path d="M240.05 24.8323V15.6746L225.391 0.901886H231.165L242.297 12.1061L253.416 0.901886H259.19L244.531 15.6746V24.8323H240.05Z" fill="black"/>
<path d="M22.518 11.3144C29.133 11.7442 35.7483 12.0868 40.0188 12.0868C44.2894 12.0868 50.9044 11.7442 57.5195 11.3144L57.9343 1.2102C52.3095 1.13296 46.0619 1.09534 40.0188 1.09534C33.9756 1.09534 27.7279 1.13494 22.1034 1.2102L22.5199 11.3144H22.518Z" fill="black"/>
<path d="M0.270853 9.61868C0.441831 9.63453 10.7713 10.5317 21.429 11.2387L21.0163 1.22357C11.6105 1.3622 4.1562 1.60778 2.70779 1.95634C0.353395 2.52275 0.0310892 4.38438 0.00554072 5.62611C-0.00821621 6.21628 -0.00821621 7.81449 0.150971 9.60879L0.272817 9.61868H0.270853Z" fill="black"/>
<path d="M58.6089 11.2407C69.2686 10.5317 79.5961 9.63453 79.767 9.62067L79.889 9.60482C80.0461 7.81252 80.0461 6.21431 80.0324 5.62611C80.0068 4.38437 79.6846 2.52275 77.3282 1.95634C75.8797 1.60778 68.4254 1.3622 59.0196 1.22357L58.6069 11.2407H58.6089Z" fill="black"/>
<path d="M58.5419 12.3448L57.6594 22.7896C63.06 21.8233 67.9496 20.7914 69.9641 20.2527C74.4075 19.0664 77.1393 17.7712 78.5857 15.1808C79.2047 14.0698 79.5644 12.3844 79.7707 10.7208C78.7566 10.808 68.7909 11.6655 58.5419 12.3448Z" fill="black"/>
<path d="M57.4457 12.4171C50.8562 12.8449 44.2785 13.1835 40.0177 13.1835C35.757 13.1835 29.1793 12.8449 22.5896 12.4171L23.482 22.9847C29.6961 24.072 36.3642 25.0286 40.0177 25.0286C43.6711 25.0286 50.3413 24.0739 56.5536 22.9847L57.4457 12.4171Z" fill="black"/>
<path d="M21.4952 12.3448C11.2442 11.6655 1.2783 10.808 0.264221 10.7208C0.470574 12.3824 0.828255 14.0698 1.44928 15.1808C2.89573 17.7712 5.62549 19.0664 10.0709 20.2527C12.0853 20.7914 16.975 21.8233 22.3755 22.7896L21.4952 12.3448Z" fill="black"/>
</g>
</g>
<defs>
<clipPath id="clip0_45_462">
<rect width="259.19" height="24.1962" fill="white" transform="translate(0 0.901886)"/>
</clipPath>
<clipPath id="clip1_45_462">
<rect width="259.19" height="24.1962" fill="white" transform="translate(0 0.901886)"/>
</clipPath>
</defs>
</svg>
