<svg width="49" height="15" viewBox="0 0 49 15" fill="none" xmlns="http://www.w3.org/2000/svg">
<path d="M13.6743 6.48023C17.6662 6.73067 21.658 6.93179 24.2345 6.93179C26.811 6.93179 30.8029 6.73067 34.7948 6.48023L35.0453 0.568302C31.651 0.522767 27.8811 0.5 24.2345 0.5C20.588 0.5 16.8181 0.522767 13.4238 0.568302L13.6762 6.48023H13.6743Z" fill="white"/>
<path d="M0.251161 5.49312H0.249263C0.353614 5.5026 6.58618 6.02625 13.018 6.44176L12.7675 0.581055C7.09276 0.660741 2.5943 0.804934 1.71966 1.00984C0.30049 1.33997 0.10507 2.4309 0.0898917 3.15567C0.0823025 3.50097 0.0823025 4.43633 0.177167 5.48553L0.251161 5.49122V5.49312Z" fill="white"/>
<path d="M48.29 5.48602C48.3849 4.43682 48.3849 3.50146 48.3773 3.15805C48.3602 2.43139 48.1667 1.34235 46.7456 1.01033C45.871 0.805422 41.3725 0.661229 35.6978 0.581543L35.4492 6.44414C41.881 6.02864 48.1136 5.50499 48.216 5.4955L48.29 5.48602Z" fill="white"/>
<path d="M42.3029 11.7094C44.9838 11.015 46.6325 10.258 47.5053 8.74206C47.879 8.0913 48.0953 7.10661 48.2186 6.1333C47.6077 6.18453 41.5952 6.68541 35.4101 7.08384L34.877 13.1969C38.1365 12.6315 41.0868 12.0282 42.3029 11.7113V11.7094Z" fill="white"/>
<path d="M13.7178 7.12158L14.2566 13.3048C18.0056 13.9404 22.0298 14.5001 24.2344 14.5001C26.439 14.5001 30.4632 13.9404 34.2122 13.3048L34.751 7.12158C30.7743 7.37202 26.8052 7.56934 24.2344 7.56934C21.6636 7.56934 17.6945 7.37202 13.7178 7.12158Z" fill="white"/>
<path d="M0.962346 8.74201C1.8351 10.2579 3.48383 11.015 6.16469 11.7094C7.38085 12.0243 10.3311 12.6276 13.5907 13.1949L13.0575 7.08189C6.87238 6.68535 0.859892 6.18257 0.24707 6.13135C0.372291 7.10276 0.588581 8.09124 0.962346 8.74011V8.74201Z" fill="white"/>
</svg>
